# xmcd
#
# Track frame offsets: 
#        150
#        19273
#        30424
#        46172
#        65034
#        75279
#        91714
#        103342
#        127224
#        143187
#        162397
#        172999
#        190172
#        206402
#        215872
#        228667
#        242479
#        252876
#        266853
#        287698
#        302508
#        317253
#
# Disc length: 4442 seconds
#
# Revision: 0
# Processed by: cddbd v1.5.1PL0 Copyright (c) Steve Scherf et al.
# Submitted via: ExactAudioCopy v0.95a5
#
DISCID=34115816
DTITLE=T-Rex - Essential Collection
DYEAR=1900
DGENRE=A Cappella
TTITLE0=Jeepster
TTITLE1=Metal Guru
TTITLE2=Rock On
TTITLE3=Ballroom of Mars
TTITLE4=Solid Gold Easy Action
TTITLE5=Spaceball Ricochet
TTITLE6=Highway Knees
TTITLE7=Left Hand Luke
TTITLE8=Buick Mackane
TTITLE9=Main Man
TTITLE10=London Boys
TTITLE11=Telegram Sam
TTITLE12=20th Century Boy
TTITLE13=Born to Boogie
TTITLE14=Rapids
TTITLE15=Electric Slim and the Factory Hen
TTITLE16=Mad Donna
TTITLE17=Truck on (Tyke)
TTITLE18=Dandy in the Underworld
TTITLE19=Light of Love
TTITLE20=The Groover
TTITLE21=Teen Riot Structure
EXTD=
EXTT0=
EXTT1=
EXTT2=
EXTT3=
EXTT4=
EXTT5=
EXTT6=
EXTT7=
EXTT8=
EXTT9=
EXTT10=
EXTT11=
EXTT12=
EXTT13=
EXTT14=
EXTT15=
EXTT16=
EXTT17=
EXTT18=
EXTT19=
EXTT20=
EXTT21=
PLAYORDER=
